<svg width="24" height="24" viewBox="0 0 24 24" fill="none" xmlns="http://www.w3.org/2000/svg">
<g id="heart 1" clip-path="url(#clip0_2724_10191)">
<g id="01 align center">
<path id="Vector" d="M17.5 0.916992C16.374 0.934507 15.2725 1.24885 14.3068 1.82826C13.3411 2.40768 12.5454 3.23166 12 4.21699C11.4547 3.23166 10.659 2.40768 9.69326 1.82826C8.72756 1.24885 7.62607 0.934507 6.50002 0.916992C4.70496 0.994983 3.01373 1.78025 1.7958 3.10122C0.577879 4.4222 -0.0677312 6.17152 1.93263e-05 7.96699C1.93263e-05 14.742 10.956 22.567 11.422 22.899L12 23.308L12.578 22.899C13.044 22.569 24 14.742 24 7.96699C24.0678 6.17152 23.4222 4.4222 22.2042 3.10122C20.9863 1.78025 19.2951 0.994983 17.5 0.916992ZM12 20.846C8.74702 18.416 2.00002 12.446 2.00002 7.96699C1.93166 6.70171 2.36639 5.46072 3.20938 4.51469C4.05238 3.56866 5.23525 2.99434 6.50002 2.91699C7.76479 2.99434 8.94766 3.56866 9.79066 4.51469C10.6337 5.46072 11.0684 6.70171 11 7.96699H13C12.9317 6.70171 13.3664 5.46072 14.2094 4.51469C15.0524 3.56866 16.2353 2.99434 17.5 2.91699C18.7648 2.99434 19.9477 3.56866 20.7907 4.51469C21.6337 5.46072 22.0684 6.70171 22 7.96699C22 12.448 15.253 18.416 12 20.846Z" fill="black"/>
</g>
</g>
<defs>
<clipPath id="clip0_2724_10191">
<rect width="24" height="24" fill="white"/>
</clipPath>
</defs>
</svg>
