<svg width="24" height="24" viewBox="0 0 24 24" fill="none" xmlns="http://www.w3.org/2000/svg">
<g id="Group 1017 1" clip-path="url(#clip0_2724_10201)">
<path id="Ellipse 18" d="M2.81236 9.57936C3.32989 9.57936 3.74942 9.13282 3.74942 8.58198C3.74942 8.03114 3.32989 7.58459 2.81236 7.58459C2.29484 7.58459 1.87531 8.03114 1.87531 8.58198C1.87531 9.13282 2.29484 9.57936 2.81236 9.57936Z" fill="#424242"/>
<path id="Ellipse 19" d="M2.81236 23.9988C3.32989 23.9988 3.74942 23.5523 3.74942 23.0014C3.74942 22.4506 3.32989 22.004 2.81236 22.004C2.29484 22.004 1.87531 22.4506 1.87531 23.0014C1.87531 23.5523 2.29484 23.9988 2.81236 23.9988Z" fill="#424242"/>
<path id="Ellipse 20" d="M2.81236 16.7633C3.32989 16.7633 3.74942 16.3168 3.74942 15.7659C3.74942 15.2151 3.32989 14.7686 2.81236 14.7686C2.29484 14.7686 1.87531 15.2151 1.87531 15.7659C1.87531 16.3168 2.29484 16.7633 2.81236 16.7633Z" fill="#424242"/>
<path id="Ellipse 21" d="M2.81236 13.172C3.32989 13.172 3.74942 12.7255 3.74942 12.1746C3.74942 11.6238 3.32989 11.1772 2.81236 11.1772C2.29484 11.1772 1.87531 11.6238 1.87531 12.1746C1.87531 12.7255 2.29484 13.172 2.81236 13.172Z" fill="#424242"/>
<path id="Ellipse 22" d="M2.81236 20.4061C3.32989 20.4061 3.74942 19.9596 3.74942 19.4088C3.74942 18.8579 3.32989 18.4114 2.81236 18.4114C2.29484 18.4114 1.87531 18.8579 1.87531 19.4088C1.87531 19.9596 2.29484 20.4061 2.81236 20.4061Z" fill="#424242"/>
<path id="Ellipse 23" d="M6.28087 23.9988C6.79839 23.9988 7.21793 23.5523 7.21793 23.0014C7.21793 22.4506 6.79839 22.004 6.28087 22.004C5.76335 22.004 5.34381 22.4506 5.34381 23.0014C5.34381 23.5523 5.76335 23.9988 6.28087 23.9988Z" fill="#424242"/>
<path id="Path 270" d="M16.3596 4.63647C15.7107 4.63647 15.0763 4.84128 14.5368 5.225C13.9973 5.60871 13.5767 6.15411 13.3284 6.7922C13.0801 7.4303 13.0151 8.13244 13.1417 8.80984C13.2683 9.48724 13.5808 10.1095 14.0396 10.5979C14.4985 11.0862 15.0831 11.4188 15.7195 11.5536C16.3559 11.6883 17.0156 11.6192 17.6151 11.3548C18.2146 11.0905 18.727 10.6429 19.0875 10.0687C19.448 9.4944 19.6404 8.81924 19.6404 8.12857C19.6392 7.20282 19.2931 6.31536 18.6781 5.66075C18.0631 5.00614 17.2293 4.6378 16.3596 4.63647ZM16.3596 9.6259C16.0813 9.6259 15.8094 9.53808 15.578 9.37355C15.3467 9.20903 15.1664 8.97518 15.0599 8.70158C14.9534 8.42798 14.9255 8.1269 14.9798 7.83645C15.0341 7.546 15.1681 7.2792 15.3648 7.0698C15.5616 6.86039 15.8122 6.71778 16.0851 6.66001C16.358 6.60223 16.6409 6.63189 16.8979 6.74522C17.155 6.85855 17.3747 7.05046 17.5293 7.2967C17.6838 7.54293 17.7664 7.83243 17.7664 8.12857C17.766 8.52558 17.6177 8.90624 17.354 9.18697C17.0902 9.4677 16.7326 9.62557 16.3596 9.6259Z" fill="#424242"/>
<path id="Ellipse 24" d="M16.4068 23.9988C16.9243 23.9988 17.3438 23.5523 17.3438 23.0014C17.3438 22.4506 16.9243 22.004 16.4068 22.004C15.8893 22.004 15.4697 22.4506 15.4697 23.0014C15.4697 23.5523 15.8893 23.9988 16.4068 23.9988Z" fill="#424242"/>
<path id="Path 271" d="M16.3596 0C14.3342 0.00166133 12.3921 0.858433 10.9595 2.38233C9.52693 3.90622 8.72077 5.97277 8.71796 8.12855V8.34712C8.71796 10.6082 9.92293 13.2247 12.301 16.129C13.3665 17.4269 14.5267 18.6332 15.7707 19.7366L16.3608 20.2391L16.9509 19.7366C18.1949 18.6332 19.355 17.4269 20.4206 16.129C22.7974 13.226 24.0036 10.6019 24.0036 8.34712V8.12855C24.0008 5.97233 23.1943 3.9054 21.7612 2.38144C20.328 0.857472 18.3854 0.000996167 16.3596 0ZM22.1259 8.12855V8.34712C22.1259 10.0806 21.0531 12.3103 19.0232 14.7949C18.1925 15.804 17.3028 16.7564 16.3596 17.6464C15.4234 16.7631 14.5401 15.8183 13.7148 14.8175C11.6731 12.3241 10.5933 10.0869 10.5933 8.34712V8.12855C10.6149 6.51614 11.2319 4.97759 12.3109 3.84551C13.3898 2.71344 14.844 2.0788 16.359 2.0788C17.874 2.0788 19.3282 2.71344 20.4071 3.84551C21.4861 4.97759 22.103 6.51614 22.1247 8.12855H22.1259Z" fill="#424242"/>
<path id="Path 272" d="M2.81235 0C2.25612 0 1.71238 0.175561 1.24989 0.50448C0.787405 0.8334 0.426939 1.30091 0.214079 1.84788C0.00121855 2.39485 -0.0544754 2.99673 0.0540398 3.57739C0.162555 4.15805 0.430406 4.69143 0.82372 5.11006C1.21703 5.5287 1.71815 5.81379 2.26369 5.92929C2.80923 6.04479 3.3747 5.98551 3.88859 5.75895C4.40248 5.53239 4.84171 5.14872 5.15074 4.65645C5.45976 4.16419 5.62471 3.58544 5.62471 2.9934C5.62377 2.19981 5.32717 1.43901 4.79995 0.877849C4.27274 0.316693 3.55795 0.000997188 2.81235 0ZM2.81235 3.99204C2.62702 3.99204 2.44585 3.93355 2.29175 3.82396C2.13765 3.71436 2.01755 3.55859 1.94663 3.37634C1.8757 3.1941 1.85714 2.99356 1.8933 2.80008C1.92946 2.60661 2.0187 2.42889 2.14975 2.28941C2.2808 2.14992 2.44777 2.05493 2.62954 2.01644C2.81131 1.97796 2.99973 1.99771 3.17095 2.0732C3.34217 2.14869 3.48852 2.27653 3.59149 2.44054C3.69445 2.60456 3.74941 2.7974 3.74941 2.99466C3.74756 3.25858 3.64824 3.51112 3.47291 3.69774C3.29757 3.88436 3.0603 3.99007 2.81235 3.99204Z" fill="#424242"/>
<path id="Ellipse 25" d="M9.65617 23.9988C10.1737 23.9988 10.5932 23.5523 10.5932 23.0014C10.5932 22.4506 10.1737 22.004 9.65617 22.004C9.13865 22.004 8.71912 22.4506 8.71912 23.0014C8.71912 23.5523 9.13865 23.9988 9.65617 23.9988Z" fill="#424242"/>
<path id="Ellipse 26" d="M13.0315 23.9988C13.549 23.9988 13.9685 23.5523 13.9685 23.0014C13.9685 22.4506 13.549 22.004 13.0315 22.004C12.514 22.004 12.0944 22.4506 12.0944 23.0014C12.0944 23.5523 12.514 23.9988 13.0315 23.9988Z" fill="#424242"/>
</g>
<defs>
<clipPath id="clip0_2724_10201">
<rect width="24" height="24" fill="white"/>
</clipPath>
</defs>
</svg>
