<svg width="24" height="24" viewBox="0 0 24 24" fill="none" xmlns="http://www.w3.org/2000/svg">
<g id="Layer 2 1" clip-path="url(#clip0_2724_10197)">
<path id="Path 213" d="M12 13.4565C10.6009 13.458 9.24437 13.0745 8.16158 12.3714C7.07879 11.6682 6.3367 10.6889 6.06173 9.60021C6.02432 9.39001 6.09239 9.17655 6.25129 9.00577C6.41019 8.835 6.64722 8.72054 6.91137 8.68704C7.17553 8.65353 7.44571 8.70366 7.66377 8.82662C7.88183 8.94959 8.03034 9.13557 8.07736 9.34456C8.26443 10.0662 8.75956 10.7145 9.47916 11.1801C10.1988 11.6456 11.0987 11.8999 12.0272 11.8999C12.9556 11.8999 13.8556 11.6456 14.5752 11.1801C15.2948 10.7145 15.7899 10.0662 15.977 9.34456C16.024 9.13557 16.1725 8.94959 16.3906 8.82662C16.6086 8.70366 16.8788 8.65353 17.143 8.68704C17.4071 8.72054 17.6441 8.835 17.803 9.00577C17.9619 9.17655 18.03 9.39001 17.9926 9.60021C17.7159 10.6962 16.9658 11.6811 15.8718 12.3851C14.7778 13.0891 13.4084 13.4681 12 13.4565Z" fill="#252425"/>
<path id="Path 214" d="M20.972 24H3.0288C2.61868 24.0004 2.21274 23.9346 1.83567 23.8066C1.4586 23.6786 1.11828 23.4911 0.835405 23.2554C0.552533 23.0197 0.333021 22.7409 0.190218 22.4358C0.0474152 22.1307 -0.0156943 21.8058 0.00472846 21.4807L0.821845 7.68917C0.855267 7.07086 1.1884 6.48671 1.75168 6.05869C2.31495 5.63068 3.06482 5.3919 3.84468 5.39221H20.1561C20.936 5.39163 21.686 5.63017 22.2495 6.058C22.813 6.48584 23.1465 7.06989 23.1802 7.68819L23.9973 21.4797C24.0179 21.8049 23.9549 22.1299 23.8122 22.4351C23.6695 22.7403 23.45 23.0193 23.1671 23.2551C22.8842 23.4908 22.5438 23.6785 22.1667 23.8065C21.7895 23.9346 21.3823 24.0004 20.972 24ZM3.84468 7.00057C3.57723 7.00057 3.32073 7.08488 3.13161 7.23496C2.94249 7.38504 2.83624 7.58859 2.83624 7.80083L2.02036 21.56C2.0135 21.6685 2.0345 21.7769 2.0821 21.8786C2.12969 21.9804 2.20289 22.0734 2.29722 22.1521C2.39156 22.2307 2.50506 22.2932 2.63083 22.3359C2.7566 22.3786 2.892 22.4006 3.0288 22.4005H20.972C21.1088 22.4006 21.2442 22.3786 21.37 22.3359C21.4958 22.2932 21.6093 22.2307 21.7036 22.1521C21.7979 22.0734 21.8711 21.9804 21.9187 21.8786C21.9663 21.7769 21.9873 21.6685 21.9805 21.56L21.1633 7.76851C21.1633 7.55627 21.0571 7.35272 20.868 7.20264C20.6789 7.05256 20.4224 6.96825 20.1549 6.96825L3.84468 7.00057Z" fill="#252425"/>
<path id="Path 215" d="M18.0481 6.20031H16.0325V4.79961C16.0325 4.37937 15.9282 3.96325 15.7255 3.575C15.5229 3.18675 15.2258 2.83397 14.8514 2.53682C14.4769 2.23967 14.0324 2.00395 13.5432 1.84313C13.0539 1.68231 12.5295 1.59954 12 1.59954C11.4704 1.59954 10.9461 1.68231 10.4568 1.84313C9.96756 2.00395 9.52302 2.23967 9.14857 2.53682C8.77412 2.83397 8.47709 3.18675 8.27443 3.575C8.07178 3.96325 7.96748 4.37937 7.96748 4.79961V6.20031H5.95184V4.79961C5.95184 3.52667 6.58906 2.30587 7.7233 1.40577C8.85755 0.505672 10.3959 0 12 0C13.604 0 15.1424 0.505672 16.2767 1.40577C17.4109 2.30587 18.0481 3.52667 18.0481 4.79961V6.20031Z" fill="#252425"/>
</g>
<defs>
<clipPath id="clip0_2724_10197">
<rect width="24" height="24" fill="white"/>
</clipPath>
</defs>
</svg>
